<?xml version="1.0" encoding="UTF-8"?>
<svg version="1.1" xmlns="http://www.w3.org/2000/svg" width="535" height="535">
<path d="M0 0 C0.77867432 0.07822998 1.55734863 0.15645996 2.35961914 0.23706055 C6.34304773 0.69758526 9.80213755 1.41170047 13.4375 3.125 C13.4375 3.785 13.4375 4.445 13.4375 5.125 C14.02917969 5.16238281 14.62085938 5.19976562 15.23046875 5.23828125 C19.97362478 5.63289945 23.6031695 6.03279798 27.4375 9.125 C27.4375 9.785 27.4375 10.445 27.4375 11.125 C28.5203125 11.0321875 28.5203125 11.0321875 29.625 10.9375 C33.02104843 11.16390323 34.60841092 12.2860921 37.4375 14.125 C38.324375 14.475625 39.21125 14.82625 40.125 15.1875 C42.4375 16.125 42.4375 16.125 44.4375 18.125 C45.5203125 18.5271875 45.5203125 18.5271875 46.625 18.9375 C52.44599386 21.39525296 57.2473835 25.42699059 61.4375 30.125 C61.4375 30.785 61.4375 31.445 61.4375 32.125 C62.7575 32.455 64.0775 32.785 65.4375 33.125 C65.52 33.74375 65.6025 34.3625 65.6875 35 C66.20994228 37.26910204 66.20994228 37.26910204 68.20703125 37.99609375 C75.05389386 41.46149357 80.31198691 48.81539174 84.4375 55.125 C85.241875 56.3315625 85.241875 56.3315625 86.0625 57.5625 C87.55342906 60.34104962 88.62509633 63.12494259 89.68359375 66.08984375 C90.37170508 67.94738781 91.1802975 69.75915451 92 71.5625 C93.18598775 74.50168704 93.71165155 76.62774329 94.1875 79.6875 C95.08962456 84.32473679 97.21421989 86.23852792 100.9765625 88.93359375 C101.45867187 89.32675781 101.94078125 89.71992188 102.4375 90.125 C102.4375 90.785 102.4375 91.445 102.4375 92.125 C102.99953125 92.23714844 103.5615625 92.34929687 104.140625 92.46484375 C106.75263108 93.21557339 108.83221322 94.33667376 111.1875 95.6875 C111.98671875 96.14253906 112.7859375 96.59757812 113.609375 97.06640625 C114.21265625 97.41574219 114.8159375 97.76507813 115.4375 98.125 C115.4375 98.785 115.4375 99.445 115.4375 100.125 C115.97503906 100.19203125 116.51257813 100.2590625 117.06640625 100.328125 C120.40971378 101.45174071 122.74750366 103.6050531 125.375 105.875 C126.14360352 106.52082031 126.14360352 106.52082031 126.92773438 107.1796875 C131.56494559 111.11571939 135.71042951 114.67085902 138.4375 120.125 C139.4275 120.455 140.4175 120.785 141.4375 121.125 C143.80803301 123.87018622 145.58394453 127.01581018 147.4375 130.125 C148.40042969 131.71828125 148.40042969 131.71828125 149.3828125 133.34375 C154.43720105 142.42937153 156.49148611 150.17710722 153.81640625 160.52832031 C150.95726457 170.28717824 147.44665945 179.83650421 141.4375 188.125 C140.94765625 188.8675 140.4578125 189.61 139.953125 190.375 C139.45296875 190.9525 138.9528125 191.53 138.4375 192.125 C137.4475 192.125 136.4575 192.125 135.4375 192.125 C135.14875 192.723125 134.86 193.32125 134.5625 193.9375 C133.4375 196.125 133.4375 196.125 131.4375 199.125 C130.7775 199.125 130.1175 199.125 129.4375 199.125 C129.1075 200.115 128.7775 201.105 128.4375 202.125 C126.23891007 203.84310339 124.05357332 205.43610619 121.75 207 C118.1108854 209.50260878 114.52825956 211.98994179 111.15625 214.84765625 C108.33050394 217.21462457 105.79135692 218.61247629 102.4375 220.125 C101.81488281 220.44339844 101.19226563 220.76179687 100.55078125 221.08984375 C89.9994954 226.25821852 78.27646407 228.86859282 66.8828125 225.33203125 C56.62836831 221.51388714 49.01199263 216.43993699 43.5625 206.8125 C42.13858415 202.14522028 42.17470203 197.96242922 42.4375 193.125 C41.47972656 193.43953125 40.52195312 193.7540625 39.53515625 194.078125 C31.49114678 196.67747696 23.45532602 198.95263233 15.19946289 200.78027344 C12.13798447 201.46265785 9.17603884 202.21236398 6.19921875 203.20703125 C3.82214691 203.99714707 1.85107509 204.42162628 -0.625 204.625 C-4.14553661 205.07205227 -6.33459492 205.82260065 -9.5625 207.125 C-19.40982638 209.88911976 -28.75435184 210.51471119 -38.9375 210.3125 C-40.27081784 210.29739296 -41.60415267 210.28371542 -42.9375 210.27148438 C-46.14628565 210.23660627 -49.3541563 210.18760026 -52.5625 210.125 C-54.5425 214.085 -54.5425 214.085 -56.5625 218.125 C-57.2225 218.125 -57.8825 218.125 -58.5625 218.125 C-58.748125 218.7025 -58.93375 219.28 -59.125 219.875 C-61.22546897 223.16269057 -63.94690067 224.86308494 -67.5625 226.125 C-73.03005476 226.48950365 -77.72226256 224.44428044 -82.5625 222.125 C-82.5625 221.465 -82.5625 220.805 -82.5625 220.125 C-83.34625 219.83625 -84.13 219.5475 -84.9375 219.25 C-87.5625 218.125 -87.5625 218.125 -89.5625 216.125 C-92.77543217 216.10808598 -92.77543217 216.10808598 -96.5625 216.5 C-135.79575641 219.5083718 -135.79575641 219.5083718 -146.5625 214.125 C-148.5115625 213.9703125 -148.5115625 213.9703125 -150.5 213.8125 C-155.27874698 213.33003035 -159.35560746 211.88631833 -163.81640625 210.16015625 C-166.33902916 209.20923865 -168.84536457 208.42270859 -171.4375 207.6875 C-187.75639205 202.93110795 -187.75639205 202.93110795 -190.5625 200.125 C-195.37538967 199.80601706 -200.16731665 199.9957785 -204.9375 200.6875 C-208.25102503 201.08740819 -209.50537309 200.88928173 -212.5625 200.125 C-214.559294 200.38265084 -216.55600766 200.64120992 -218.55078125 200.9140625 C-225.08731436 201.59944655 -228.62797368 198.97393053 -233.5625 195.125 C-233.38084699 190.49284827 -233.1452146 188.66971147 -229.6875 185.4375 C-228.65625 184.674375 -227.625 183.91125 -226.5625 183.125 C-225.55676222 181.79598936 -224.55454592 180.46426199 -223.5625 179.125 C-222.9025 179.125 -222.2425 179.125 -221.5625 179.125 C-221.31886719 178.54234375 -221.07523438 177.9596875 -220.82421875 177.359375 C-219.34253229 174.73545966 -217.68649363 173.30058161 -215.375 171.375 C-212.3553715 168.77850416 -209.66179948 166.19331937 -207.125 163.125 C-202.4871997 157.63315256 -196.74906199 153.34495611 -190.87109375 149.25 C-188.11063307 146.70906834 -187.56940657 144.99763956 -186.75 141.375 C-186.51667969 140.39015625 -186.28335938 139.4053125 -186.04296875 138.390625 C-185.88441406 137.64296875 -185.72585937 136.8953125 -185.5625 136.125 C-184.9025 136.125 -184.2425 136.125 -183.5625 136.125 C-183.48 135.42375 -183.3975 134.7225 -183.3125 134 C-181.78255204 128.13519948 -177.85845908 124.20616112 -173.5625 120.125 C-172.840625 119.361875 -172.11875 118.59875 -171.375 117.8125 C-169.5625 116.125 -169.5625 116.125 -167.5625 116.125 C-167.315 115.50625 -167.0675 114.8875 -166.8125 114.25 C-165.33479238 111.73789704 -164.12294823 111.36392656 -161.5625 110.125 C-161.0675 108.64 -161.0675 108.64 -160.5625 107.125 C-159.304375 106.795 -158.04625 106.465 -156.75 106.125 C-153.72732843 105.11383796 -152.78705566 104.52920019 -151.21484375 101.69921875 C-150.20512782 98.86203217 -149.35641011 96.02945332 -148.5625 93.125 C-145.65134954 83.50167731 -140.23716694 74.39380039 -134.5625 66.125 C-133.9025 66.125 -133.2425 66.125 -132.5625 66.125 C-132.47613281 65.58101563 -132.38976562 65.03703125 -132.30078125 64.4765625 C-131.31969891 61.35163356 -129.67215414 59.14608233 -127.75 56.5 C-127.06292969 55.53835937 -126.37585938 54.57671875 -125.66796875 53.5859375 C-123.64510657 51.22155314 -122.34215873 50.34298495 -119.5625 49.125 C-119.0675 48.135 -119.0675 48.135 -118.5625 47.125 C-117.5625 45.125 -117.5625 45.125 -115.68359375 44.21875 C-113.27609707 42.97731525 -112.27158162 41.75638417 -110.625 39.625 C-106.15546846 34.34195629 -100.74062601 30.3985253 -95.19824219 26.33007812 C-93.67598644 25.20860732 -92.16933299 24.06604286 -90.6640625 22.921875 C-84.58423535 18.35764946 -78.33763947 14.56454082 -71.5625 11.125 C-70.97291504 10.80474854 -70.38333008 10.48449707 -69.77587891 10.15454102 C-64.75603427 7.49759917 -59.81882631 5.90230001 -54.3125 4.5625 C-52.61581983 4.14088887 -50.91920497 3.7190148 -49.22265625 3.296875 C-48.41328613 3.09771484 -47.60391602 2.89855469 -46.77001953 2.69335938 C-44.97594989 2.23144894 -43.20077966 1.6965936 -41.43359375 1.140625 C-28.32185238 -2.90550188 -13.47468298 -1.35658263 0 0 Z M-23.625 11.375 C-24.45555908 11.4280127 -25.28611816 11.48102539 -26.1418457 11.53564453 C-40.18445291 12.38739947 -40.18445291 12.38739947 -53.58984375 16.2890625 C-55.95664475 17.29202372 -58.37367702 18.0632154 -60.8125 18.875 C-70.86317955 22.53612011 -79.31225615 28.44184158 -87.5625 35.125 C-88.99480824 36.21518827 -90.43213143 37.29882731 -91.875 38.375 C-92.48988281 38.83390625 -93.10476562 39.2928125 -93.73828125 39.765625 C-95.0620069 40.75204154 -96.4186481 41.69476581 -97.79296875 42.609375 C-98.37691406 43.10953125 -98.96085937 43.6096875 -99.5625 44.125 C-99.5625 45.115 -99.5625 46.105 -99.5625 47.125 C-100.119375 47.393125 -100.67625 47.66125 -101.25 47.9375 C-102.3946875 48.5253125 -102.3946875 48.5253125 -103.5625 49.125 C-104.325625 49.475625 -105.08875 49.82625 -105.875 50.1875 C-109.92239768 53.10539135 -112.82698022 56.9704786 -115.5625 61.125 C-115.5625 61.785 -115.5625 62.445 -115.5625 63.125 C-116.2225 63.125 -116.8825 63.125 -117.5625 63.125 C-117.995625 63.846875 -118.42875 64.56875 -118.875 65.3125 C-120.5625 68.125 -120.5625 68.125 -122.875 70.3125 C-128.46853299 76.16619732 -136.5625 87.78053397 -136.5625 96.125 C-131.23319665 95.19603887 -125.92046565 94.20780704 -120.625 93.1015625 C-119.75133789 92.92077148 -118.87767578 92.73998047 -117.97753906 92.55371094 C-116.22829748 92.19027379 -114.48019303 91.82131085 -112.73339844 91.44628906 C-104.26911724 89.69654121 -97.0450045 90.18215588 -88.625 91.875 C-87.76970703 92.03226562 -86.91441406 92.18953125 -86.03320312 92.3515625 C-80.32761874 93.48310479 -75.63266567 95.30666966 -70.5625 98.125 C-69.3546557 98.73014374 -68.14639039 99.33444874 -66.9375 99.9375 C-63.00936925 102.23116715 -59.96878956 105.26113719 -57.5625 109.125 C-57.1875 112.0625 -57.1875 112.0625 -57.5625 114.125 C-58.8825 114.455 -60.2025 114.785 -61.5625 115.125 C-61.5625 114.465 -61.5625 113.805 -61.5625 113.125 C-62.92375 112.6609375 -62.92375 112.6609375 -64.3125 112.1875 C-69.32340043 110.08944006 -73.30969137 106.57707507 -77.5 103.18359375 C-88.5365549 95.76488912 -104.51988629 97.67009902 -117.05859375 99.6875 C-123.5960175 101.0687564 -129.58899598 103.16645976 -135.6953125 105.86328125 C-139.24771503 107.42653196 -142.86601449 108.78279027 -146.50390625 110.1328125 C-148.71648459 111.19921648 -149.85753391 112.38098889 -151.5625 114.125 C-152.33464844 114.54910156 -153.10679687 114.97320312 -153.90234375 115.41015625 C-157.35417779 117.63534735 -159.56684916 120.38698683 -162.125 123.5625 C-163.06210389 124.70842209 -164.00087328 125.85298445 -164.94140625 126.99609375 C-165.38597168 127.53741943 -165.83053711 128.07874512 -166.28857422 128.63647461 C-167.39425401 129.92841207 -168.58738537 131.14450068 -169.79296875 132.34375 C-172.88717639 135.45844908 -174.5625 138.73744862 -174.5625 143.125 C-173.9025 143.455 -173.2425 143.785 -172.5625 144.125 C-172.95027104 146.52305772 -173.24984726 147.82075191 -175.015625 149.5390625 C-178.46724294 151.86515285 -181.68068064 153.59270288 -185.5625 155.125 C-189.66215268 157.93002552 -192.66540474 161.43126644 -195.81640625 165.22265625 C-197.5625 167.125 -197.5625 167.125 -199.77734375 168.74609375 C-200.36644531 169.20113281 -200.95554687 169.65617188 -201.5625 170.125 C-201.5625 170.785 -201.5625 171.445 -201.5625 172.125 C-202.2225 172.125 -202.8825 172.125 -203.5625 172.125 C-205.05631291 173.82718367 -206.48347016 175.58822891 -207.875 177.375 C-210.19544923 180.35336947 -212.26433107 182.88925883 -215.23046875 185.234375 C-217.59284747 187.14960331 -218.33543195 188.42187323 -219.5625 191.125 C-204.159761 190.75484482 -204.159761 190.75484482 -188.953125 188.5390625 C-183.22431818 187.54681818 -177.16592448 187.49987689 -171.5625 189.125 C-171.0675 191.6 -171.0675 191.6 -170.5625 194.125 C-174.0275 195.115 -174.0275 195.115 -177.5625 196.125 C-173.07221641 200.53091501 -168.464859 201.50886632 -162.5 202.75 C-161.50572998 202.96164795 -160.51145996 203.1732959 -159.48706055 203.39135742 C-141.02479669 207.05363519 -120.26821596 209.00280245 -101.5625 206.125 C-102.284375 205.403125 -103.00625 204.68125 -103.75 203.9375 C-105.1421875 202.5453125 -105.1421875 202.5453125 -106.5625 201.125 C-107.47 200.3 -108.3775 199.475 -109.3125 198.625 C-111.68134659 195.99294823 -112.26491358 194.59684157 -112.5625 191.125 C-106.68382854 191.38115126 -102.89988215 191.78761785 -98.5625 196.125 C-98.14226562 196.58519531 -97.72203125 197.04539062 -97.2890625 197.51953125 C-94.9883756 199.65885776 -92.45351232 201.23826999 -89.8125 202.9375 C-86.1588851 205.33048506 -82.70361934 207.72407965 -79.4375 210.625 C-76.94595444 213.34372624 -76.94595444 213.34372624 -74.5625 213.125 C-74.5625 213.785 -74.5625 214.445 -74.5625 215.125 C-73.5725 215.455 -72.5825 215.785 -71.5625 216.125 C-64.85430959 208.65015926 -61.04435373 200.83441425 -58.5625 191.125 C-58.37429687 190.52042969 -58.18609375 189.91585937 -57.9921875 189.29296875 C-57.35985623 186.10257009 -57.43101587 182.99854746 -57.4375 179.75 C-57.43492187 178.46351563 -57.43234375 177.17703125 -57.4296875 175.8515625 C-57.54897879 172.50438933 -58.00272296 169.41780614 -58.5625 166.125 C-58.125 162.75 -58.125 162.75 -57.5625 160.125 C-54.75 160.25 -54.75 160.25 -51.5625 161.125 C-49.8125 164.125 -49.8125 164.125 -48.5625 167.125 C-47.9025 167.455 -47.2425 167.785 -46.5625 168.125 C-43.2024317 178.20520491 -45.32737001 191.30406968 -48.5625 201.125 C-46.41723901 201.31893875 -44.27126323 201.50498676 -42.125 201.6875 C-40.93003906 201.79191406 -39.73507812 201.89632812 -38.50390625 202.00390625 C-37.53324219 202.04386719 -36.56257812 202.08382812 -35.5625 202.125 C-35.2325 201.795 -34.9025 201.465 -34.5625 201.125 C-32.22916667 200.79166667 -29.89583333 200.45833333 -27.5625 200.125 C-27.2325 199.795 -26.9025 199.465 -26.5625 199.125 C-25.16946395 198.98842784 -23.77243879 198.89228851 -22.375 198.8125 C-16.757767 198.30184245 -11.62819351 196.83789311 -6.23828125 195.22265625 C-2.69408263 194.16429301 0.86090968 193.19245324 4.4375 192.25 C5.66597656 191.92257812 6.89445313 191.59515625 8.16015625 191.2578125 C10.47741398 190.6417406 12.79602718 190.03182344 15.11669922 189.42871094 C18.03826642 188.66871703 20.95666463 187.89730066 23.875 187.125 C25.26041992 186.76946045 25.26041992 186.76946045 26.67382812 186.40673828 C31.68480357 185.07053864 36.17584987 183.4838108 40.73535156 180.99829102 C42.4375 180.125 42.4375 180.125 45.75 179.0625 C48.40535191 178.36254517 48.40535191 178.36254517 49.75 176.765625 C51.96836077 174.60888537 54.39537135 173.38259752 57.125 171.9375 C58.11886719 171.40769531 59.11273438 170.87789062 60.13671875 170.33203125 C60.89597656 169.93371094 61.65523438 169.53539062 62.4375 169.125 C62.4375 168.465 62.4375 167.805 62.4375 167.125 C63.01628906 166.86332031 63.59507812 166.60164062 64.19140625 166.33203125 C68.10448939 164.2291744 71.17770442 161.11042401 74.4375 158.125 C75.30375 157.34125 76.17 156.5575 77.0625 155.75 C85.74290906 146.15586367 88.83713517 136.23937042 89.3125 123.4375 C89.36881592 121.99685181 89.36881592 121.99685181 89.42626953 120.52709961 C89.95547972 99.5847453 81.70861241 80.07111176 70.87890625 62.51171875 C69.44007567 60.12926487 68.122261 57.70530121 66.8125 55.25 C65.00430437 51.98726215 63.29644428 49.57552367 60.4375 47.125 C59.82648438 46.5578125 59.21546875 45.990625 58.5859375 45.40625 C54.97964273 42.11060983 52.06915163 39.80923696 47.4375 38.125 C47.1075 37.135 46.7775 36.145 46.4375 35.125 C44.04291636 33.56137262 41.69630339 32.16791963 39.1875 30.8125 C38.46385254 30.41587158 37.74020508 30.01924316 36.99462891 29.6105957 C26.09084777 23.69848839 15.46529733 19.24021348 3.4375 16.125 C1.45773602 15.58552059 -0.52148035 15.04402524 -2.5 14.5 C-3.31339844 14.28085938 -4.12679687 14.06171875 -4.96484375 13.8359375 C-6.93316182 13.29723992 -8.87979533 12.67851288 -10.8125 12.0234375 C-15.27658778 10.95391647 -19.07995067 11.0488025 -23.625 11.375 Z M100.4375 101.125 C100.59605469 102.36894531 100.75460937 103.61289062 100.91796875 104.89453125 C102.78134791 121.83043032 103.72071034 140.68791931 93.140625 155.03515625 C88.33898963 160.9270712 83.52971668 166.52635903 77.4375 171.125 C76.08978516 172.15947266 76.08978516 172.15947266 74.71484375 173.21484375 C70.02270887 176.77991715 65.43637518 180.14876161 60.3125 183.0625 C56.94325034 185.28216901 55.72190049 186.94460998 54.75 190.875 C53.96800892 197.61840356 55.04587024 203.53368941 58.25 209.5 C61.70032358 213.64038829 65.19130954 216.66094685 70.4375 218.125 C76.57138264 218.49893723 81.01976446 217.59144689 86.6875 215.3125 C87.72777344 214.92094727 87.72777344 214.92094727 88.7890625 214.52148438 C92.36788713 213.13314723 95.61996334 211.77551774 98.4375 209.125 C98.4375 208.465 98.4375 207.805 98.4375 207.125 C99.076875 206.898125 99.71625 206.67125 100.375 206.4375 C109.10968125 202.69406518 115.59132781 197.69868773 122.4375 191.125 C123.43330078 190.20654297 123.43330078 190.20654297 124.44921875 189.26953125 C130.12912153 183.8853284 134.83253005 178.19126596 135.4375 170.125 C136.0975 170.125 136.7575 170.125 137.4375 170.125 C141.46866471 164.07825294 142.25326369 153.41181881 140.875 146.25 C138.46294236 138.21998534 134.26593087 131.55080152 129.0078125 125.09765625 C127.25201998 122.89199649 125.8650401 120.55181818 124.4375 118.125 C122.58337627 115.76520616 121.88102343 115.20072351 118.875 114.6875 C118.070625 114.501875 117.26625 114.31625 116.4375 114.125 C116.18097656 113.55136719 115.92445313 112.97773438 115.66015625 112.38671875 C113.93997467 109.20465762 111.30743923 107.45299845 108.4375 105.375 C107.8909375 104.96378906 107.344375 104.55257812 106.78125 104.12890625 C103.91258721 101.8306166 103.91258721 101.8306166 100.4375 101.125 Z " fill="#161517" transform="translate(306.5625,170.875)"/>
<path d="M0 0 C1.12477404 3.37432212 1.5298869 5.79892303 0.0625 9.125 C-0.288125 9.74375 -0.63875 10.3625 -1 11 C-1.33 11.66 -1.66 12.32 -2 13 C-1.01 13 -0.02 13 1 13 C0.67 15.64 0.34 18.28 0 21 C-2.31 21.33 -4.62 21.66 -7 22 C-6.505 24.475 -6.505 24.475 -6 27 C-3.69 26.67 -1.38 26.34 1 26 C-1.77593915 28.98156427 -4.47281182 30.9844639 -8 33 C-12.90154306 35.93819897 -16.15906984 39.17540293 -19.6875 43.5625 C-24.8192378 49.82840086 -24.8192378 49.82840086 -26.6953125 51.609375 C-28.42115466 53.44889539 -29.21354275 55.37015343 -30.1875 57.6875 C-30.53167969 58.49574219 -30.87585938 59.30398438 -31.23046875 60.13671875 C-31.61138672 61.05904297 -31.61138672 61.05904297 -32 62 C-31.01 62.33 -30.02 62.66 -29 63 C-30.1849774 67.60824545 -32.40989118 69.41515497 -36.19921875 71.94921875 C-38 73 -38 73 -40.625 74 C-43.80944305 75.34081813 -45.6915809 77.52036823 -48 80 C-49.5548234 81.61160825 -51.11790231 83.2152774 -52.6875 84.8125 C-53.45449219 85.60269531 -54.22148438 86.39289063 -55.01171875 87.20703125 C-57 89 -57 89 -59 89 C-59 89.66 -59 90.32 -59 91 C-59.66 91 -60.32 91 -61 91 C-61.26167969 91.57878906 -61.52335937 92.15757812 -61.79296875 92.75390625 C-64.93616247 98.60289132 -70.26331839 103.40263255 -75 108 C-75.495 108.495 -75.495 108.495 -76 109 C-61.11898323 108.57341141 -61.11898323 108.57341141 -46.421875 106.41796875 C-40.16081358 105.33743073 -33.75125032 105.03876078 -28 108 C-27.1875 110.625 -27.1875 110.625 -27 113 C-30 115 -30 115 -34 115 C-30.94955344 117.59539023 -28.48496395 118.5836463 -24.578125 119.38671875 C-23.55332031 119.60263672 -22.52851563 119.81855469 -21.47265625 120.04101562 C-20.40917969 120.25435547 -19.34570312 120.46769531 -18.25 120.6875 C-17.17105469 120.91244141 -16.09210938 121.13738281 -14.98046875 121.36914062 C-12.32207369 121.9219927 -9.66208197 122.46523508 -7 123 C-10 125 -10 125 -12.69921875 124.7578125 C-13.68535156 124.54898438 -14.67148438 124.34015625 -15.6875 124.125 C-16.68136719 123.92132813 -17.67523438 123.71765625 -18.69921875 123.5078125 C-19.45847656 123.34023438 -20.21773438 123.17265625 -21 123 C-21 124.65 -21 126.3 -21 128 C-20.01 128.33 -19.02 128.66 -18 129 C-26.45967888 127.88688436 -41.92799696 125.07200304 -48 119 C-52.81288967 118.68101706 -57.60481665 118.8707785 -62.375 119.5625 C-65.68852503 119.96240819 -66.94287309 119.76428173 -70 119 C-71.996794 119.25765084 -73.99350766 119.51620992 -75.98828125 119.7890625 C-82.52481436 120.47444655 -86.06547368 117.84893053 -91 114 C-90.81834699 109.36784827 -90.5827146 107.54471147 -87.125 104.3125 C-86.09375 103.549375 -85.0625 102.78625 -84 102 C-82.99426222 100.67098936 -81.99204592 99.33926199 -81 98 C-80.34 98 -79.68 98 -79 98 C-78.75636719 97.41734375 -78.51273438 96.8346875 -78.26171875 96.234375 C-76.78003229 93.61045966 -75.12399363 92.17558161 -72.8125 90.25 C-69.7928715 87.65350416 -67.09929948 85.06831937 -64.5625 82 C-59.9246997 76.50815256 -54.18656199 72.21995611 -48.30859375 68.125 C-45.54813307 65.58406834 -45.00690657 63.87263956 -44.1875 60.25 C-43.95417969 59.26515625 -43.72085938 58.2803125 -43.48046875 57.265625 C-43.24263672 56.14414062 -43.24263672 56.14414062 -43 55 C-42.34 55 -41.68 55 -41 55 C-40.9175 54.29875 -40.835 53.5975 -40.75 52.875 C-39.22005204 47.01019948 -35.29595908 43.08116112 -31 39 C-30.278125 38.236875 -29.55625 37.47375 -28.8125 36.6875 C-27 35 -27 35 -25 35 C-24.62875 34.071875 -24.62875 34.071875 -24.25 33.125 C-22.77229238 30.61289704 -21.56044823 30.23892656 -19 29 C-18.505 27.515 -18.505 27.515 -18 26 C-16.741875 25.67 -15.48375 25.34 -14.1875 25 C-11.16482843 23.98883796 -10.22455566 23.40420019 -8.65234375 20.57421875 C-7.64284765 17.73764987 -6.77722688 14.90833284 -6 12 C-4.60267959 7.37137616 -2.82047639 3.94866694 0 0 Z " fill="#212123" transform="translate(164,252)"/>
<path d="M0 0 C0.70672852 0.01933594 1.41345703 0.03867188 2.14160156 0.05859375 C4.2623259 0.12417322 6.38058634 0.21362724 8.5 0.3125 C9.7684375 0.37050781 11.036875 0.42851562 12.34375 0.48828125 C16.35696734 1.04996017 21.01429248 2.01429248 24 5 C24.80573756 11.67611121 24.80573756 11.67611121 22.73046875 15.0859375 C21.23085062 16.87380339 19.79702501 18.51023833 18 20 C17.34 20 16.68 20 16 20 C16 20.66 16 21.32 16 22 C13.03812728 24.17204 10.49314009 25.83561997 7 27 C6.32430167 28.32877914 5.65893174 29.66282717 5 31 C3.08984375 32.8515625 3.08984375 32.8515625 0.9375 34.625 C-1.97875712 36.95485552 -1.97875712 36.95485552 -4 40 C-2.80375 39.9175 -1.6075 39.835 -0.375 39.75 C6.27439447 39.73937796 12.87086277 41.48267578 19 44 C19.33 44.99 19.66 45.98 20 47 C16.27306285 51.82046961 16.27306285 51.82046961 13.06103516 52.2734375 C10.77465586 52.1479559 8.57288093 51.86618077 6.3125 51.5 C5.11246338 51.33250244 5.11246338 51.33250244 3.88818359 51.16162109 C-10.27233015 49.06238452 -10.27233015 49.06238452 -15.5625 45.0625 C-17.08386943 42.8796656 -17.67364018 41.62527675 -18 39 C-17.07421875 36.859375 -17.07421875 36.859375 -15.6875 34.75 C-15.01267578 33.69039062 -15.01267578 33.69039062 -14.32421875 32.609375 C-13.88722656 32.07828125 -13.45023438 31.5471875 -13 31 C-12.34 31 -11.68 31 -11 31 C-10.7525 30.4225 -10.505 29.845 -10.25 29.25 C-7.44461505 24.20030709 -2.56673412 21.0721987 1.9765625 17.68359375 C4.21858336 15.98067666 4.21858336 15.98067666 6 13 C6.99 13 7.98 13 9 13 C9.33 11.68 9.66 10.36 10 9 C8.83984375 9.03480469 7.6796875 9.06960937 6.484375 9.10546875 C-2.80566313 9.29664638 -11.07000268 8.94164618 -20 6 C-20.33 4.68 -20.66 3.36 -21 2 C-14.03058666 -0.67972884 -7.35150308 -0.23218867 0 0 Z " fill="#171618" transform="translate(155,141)"/>
<path d="M0 0 C1.14597656 0.15726563 2.29195313 0.31453125 3.47265625 0.4765625 C7.08311323 0.92935909 10.65778138 1.15333967 14.29199219 1.29052734 C23.11420869 1.63787451 31.77087065 2.3522427 39 8 C40 9.875 40 9.875 40 12 C38.6875 14.75 38.6875 14.75 37 17 C36.34 17 35.68 17 35 17 C35 17.66 35 18.32 35 19 C34.34 19 33.68 19 33 19 C33 19.66 33 20.32 33 21 C31.2984375 21.804375 31.2984375 21.804375 29.5625 22.625 C24.76264769 25.01204641 20.39677191 27.94668617 16 31 C19.55000037 33.00256431 22.70764947 34.21566436 26.6875 34.9375 C29.85222637 35.56085519 30.74790248 35.74026316 33.0625 38.125 C33.371875 38.74375 33.68125 39.3625 34 40 C33.34 41.32 32.68 42.64 32 44 C21.28072008 44.5271777 10.10470156 41.89811871 1 36 C-0.375 33 -0.375 33 0 30 C2.05296086 25.82027904 4.46433042 23.59698575 8.25 20.9375 C9.22066406 20.25558594 10.19132812 19.57367188 11.19140625 18.87109375 C14.39092294 16.73956594 17.60899785 14.80853448 21 13 C20.14277344 12.81824219 19.28554687 12.63648438 18.40234375 12.44921875 C2.45798178 8.9439757 2.45798178 8.9439757 -0.5 5 C-1 3 -1 3 0 0 Z " fill="#141315" transform="translate(97,206)"/>
<path d="M0 0 C0.66 0.33 1.32 0.66 2 1 C1.01 2.98 0.02 4.96 -1 7 C-0.1028125 6.74605469 0.794375 6.49210937 1.71875 6.23046875 C16.97635896 2.02201669 31.13471257 -1.42715456 46.9375 1.75 C47.79279297 1.90726562 48.64808594 2.06453125 49.52929688 2.2265625 C55.23643851 3.35841362 59.92592926 5.1873852 65 8 C66.175625 8.5775 67.35125 9.155 68.5625 9.75 C72.82313022 12.23373144 76.4253824 15.79766063 79 20 C79.19140625 22.75390625 79.19140625 22.75390625 79 25 C77.35 25.33 75.7 25.66 74 26 C74 25.34 74 24.68 74 24 C73.31679687 23.93683594 72.63359375 23.87367188 71.9296875 23.80859375 C67.36862212 22.54973971 64.02757164 19.54065181 60.34765625 16.68164062 C49.3416638 8.42109904 35.056657 9.42624963 22 11 C13.92950108 12.35244944 6.46982712 14.67820329 -1 18 C-1.33 17.34 -1.66 16.68 -2 16 C-0.02 15.67 1.96 15.34 4 15 C4 14.34 4 13.68 4 13 C1.69 13.33 -0.62 13.66 -3 14 C-3.74926071 10.33694766 -4.2380014 7.57644848 -3 4 C-2.34 4 -1.68 4 -1 4 C-0.67 2.68 -0.34 1.36 0 0 Z " fill="#1C1C1E" transform="translate(171,260)"/>
<path d="M0 0 C0.8125 2.625 0.8125 2.625 1 5 C-2 7 -2 7 -6 7 C-2.94955344 9.59539023 -0.48496395 10.5836463 3.421875 11.38671875 C4.44667969 11.60263672 5.47148437 11.81855469 6.52734375 12.04101562 C7.59082031 12.25435547 8.65429688 12.46769531 9.75 12.6875 C11.36841797 13.02491211 11.36841797 13.02491211 13.01953125 13.36914062 C15.67792631 13.9219927 18.33791803 14.46523508 21 15 C18 17 18 17 15.30078125 16.7578125 C14.31464844 16.54898437 13.32851562 16.34015625 12.3125 16.125 C11.31863281 15.92132813 10.32476562 15.71765625 9.30078125 15.5078125 C8.54152344 15.34023438 7.78226562 15.17265625 7 15 C7 16.65 7 18.3 7 20 C8.485 20.495 8.485 20.495 10 21 C1.54032112 19.88688436 -13.92799696 17.07200304 -20 11 C-24.81288967 10.68101706 -29.60481665 10.8707785 -34.375 11.5625 C-37.68852503 11.96240819 -38.94287309 11.76428173 -42 11 C-43.99107619 11.25691306 -45.98209248 11.51558435 -47.96875 11.8046875 C-51.55827863 12.14983448 -54.78629084 11.60685458 -58 10 C-58.33 9.01 -58.66 8.02 -59 7 C-59.66 6.67 -60.32 6.34 -61 6 C-60.67 4.68 -60.34 3.36 -60 2 C-60 2.66 -60 3.32 -60 4 C-56.4554328 5.1815224 -54.64313132 4.64290553 -51 4 C-49.00034285 3.96296931 -46.99943335 3.95239444 -45 4 C-45 3.34 -45 2.68 -45 2 C-41.56143787 0.85381262 -38.62111907 0.74429799 -35 0.5625 C-30.34509725 0.30358362 -25.82363789 -0.12397893 -21.25 -1.0625 C-14.15395883 -2.47111713 -6.62677073 -3.41203257 0 0 Z " fill="#161518" transform="translate(136,360)"/>
<path d="M0 0 C1.89654501 2.44970397 2.04327593 4.41030743 1.90625 7.46484375 C1.08382836 12.4705447 -0.73104663 17.19923205 -2.5 21.9375 C2.45 23.9175 2.45 23.9175 7.5 25.9375 C6.32926829 31.79115854 6.32926829 31.79115854 3.5 33.9375 C-1.37671462 37.07253083 -5.83300723 37.97611255 -11.5 36.9375 C-14.59445549 35.65125043 -15.32543426 34.7415453 -17.5 31.9375 C-18.52664521 24.95060896 -14.83832614 17.36517791 -12.5 10.9375 C-13.799375 10.793125 -15.09875 10.64875 -16.4375 10.5 C-20.375 10.0625 -20.375 10.0625 -21.5 8.9375 C-21.6875 6.5 -21.6875 6.5 -21.5 3.9375 C-19.5 1.9375 -19.5 1.9375 -16.9375 1.4375 C-16.133125 1.2725 -15.32875 1.1075 -14.5 0.9375 C-14.17 0.2775 -13.84 -0.3825 -13.5 -1.0625 C-8.82892421 -2.61952526 -4.450393 -1.89141702 0 0 Z " fill="#171518" transform="translate(108.5,270.0625)"/>
<path d="M0 0 C0.99 0 1.98 0 3 0 C3 0.66 3 1.32 3 2 C3.66 2 4.32 2 5 2 C5 2.66 5 3.32 5 4 C5.763125 3.67 6.52625 3.34 7.3125 3 C10 2 10 2 13 2 C11.71034824 3.37562854 10.37310707 4.70766393 9 6 C8.34 6 7.68 6 7 6 C7 6.66 7 7.32 7 8 C6.34 8 5.68 8 5 8 C4.73832031 8.57878906 4.47664063 9.15757812 4.20703125 9.75390625 C1.06383753 15.60289132 -4.26331839 20.40263255 -9 25 C-9.33 25.33 -9.66 25.66 -10 26 C-9.01 26.33 -8.02 26.66 -7 27 C-7 27.66 -7 28.32 -7 29 C-7.68707031 29.06058594 -8.37414062 29.12117188 -9.08203125 29.18359375 C-10.43361328 29.30927734 -10.43361328 29.30927734 -11.8125 29.4375 C-13.15248047 29.55931641 -13.15248047 29.55931641 -14.51953125 29.68359375 C-17.12743559 29.93489767 -17.12743559 29.93489767 -20 31 C-20 30.34 -20 29.68 -20 29 C-20.66 29 -21.32 29 -22 29 C-22.33 29.66 -22.66 30.32 -23 31 C-22.01 31.33 -21.02 31.66 -20 32 C-20.33 32.66 -20.66 33.32 -21 34 C-22.32 33.01 -23.64 32.02 -25 31 C-24.81834699 26.36784827 -24.5827146 24.54471147 -21.125 21.3125 C-20.09375 20.549375 -19.0625 19.78625 -18 19 C-16.99426222 17.67098936 -15.99204592 16.33926199 -15 15 C-14.34 15 -13.68 15 -13 15 C-12.7628125 14.42378906 -12.525625 13.84757812 -12.28125 13.25390625 C-10.72880714 10.52293207 -8.89785495 8.95777064 -6.5 6.9375 C-3.81509872 4.66666629 -1.96528001 2.94792002 0 0 Z " fill="#2B2A2B" transform="translate(98,335)"/>
<path d="M0 0 C0 3.20395416 -0.74335022 5.09399739 -2 8 C-1.34 8 -0.68 8 0 8 C0 6.68 0 5.36 0 4 C0.66 4 1.32 4 2 4 C2 3.34 2 2.68 2 2 C2.99 2.33 3.98 2.66 5 3 C4.67 4.32 4.34 5.64 4 7 C5.32 7.33 6.64 7.66 8 8 C8 7.34 8 6.68 8 6 C9.32 5.67 10.64 5.34 12 5 C11.67 5.66 11.34 6.32 11 7 C10.34 7 9.68 7 9 7 C9 7.99 9 8.98 9 10 C7.5390625 11.38671875 7.5390625 11.38671875 5.625 12.6875 C4.68527344 13.34298828 4.68527344 13.34298828 3.7265625 14.01171875 C2 15 2 15 0 15 C-0.2475 15.556875 -0.495 16.11375 -0.75 16.6875 C-2.21585054 19.3993235 -4.05455699 21.6152634 -6 24 C-6.33 24.66 -6.66 25.32 -7 26 C-7.66 26 -8.32 26 -9 26 C-9.33 26.99 -9.66 27.98 -10 29 C-10.33 27.68 -10.66 26.36 -11 25 C-10.01 25 -9.02 25 -8 25 C-8.33 24.34 -8.66 23.68 -9 23 C-11.99580623 22.00139792 -13.68521397 21.91414926 -16.75 22.75 C-19.3250645 23.84898578 -19.3250645 23.84898578 -20 27 C-20.99 27 -21.98 27 -23 27 C-23 27.99 -23 28.98 -23 30 C-23.99 29.67 -24.98 29.34 -26 29 C-25.34 29 -24.68 29 -24 29 C-23.91363281 28.45601562 -23.82726562 27.91203125 -23.73828125 27.3515625 C-22.75719891 24.22663356 -21.10965414 22.02108233 -19.1875 19.375 C-18.50042969 18.41335937 -17.81335938 17.45171875 -17.10546875 16.4609375 C-15.08260657 14.09655314 -13.77965873 13.21798495 -11 12 C-10.67 11.34 -10.34 10.68 -10 10 C-9 8 -9 8 -7.1875 7.125 C-3.91488804 5.44194242 -2.25820186 2.88548015 0 0 Z " fill="#212021" transform="translate(198,208)"/>
<path d="M0 0 C12.76661607 0.58488446 25.34807618 2.2472312 38 4 C37.67 4.66 37.34 5.32 37 6 C36.34 6 35.68 6 35 6 C34.67 6.99 34.34 7.98 34 9 C33.01 9 32.02 9 31 9 C30.67 9.99 30.34 10.98 30 12 C28.20793453 11.85915204 26.41635083 11.71216299 24.625 11.5625 C23.62726563 11.48128906 22.62953125 11.40007812 21.6015625 11.31640625 C19 11 19 11 17 10 C15.56606347 9.82251866 14.1275036 9.68108853 12.6875 9.5625 C9.14355757 9.20810576 6.23798125 8.56676512 3 7 C3 6.34 3 5.68 3 5 C2.01 5 1.02 5 0 5 C0 3.35 0 1.7 0 0 Z " fill="#09080C" transform="translate(143,375)"/>
<path d="M0 0 C2.00720923 0.28674418 4.0085944 0.61866701 6 1 C5.34 1.66 4.68 2.32 4 3 C2.68 3 1.36 3 0 3 C3.05044656 5.59539023 5.51503605 6.5836463 9.421875 7.38671875 C10.44667969 7.60263672 11.47148437 7.81855469 12.52734375 8.04101562 C13.59082031 8.25435547 14.65429688 8.46769531 15.75 8.6875 C16.82894531 8.91244141 17.90789062 9.13738281 19.01953125 9.36914062 C21.67792631 9.9219927 24.33791803 10.46523508 27 11 C24 13 24 13 21.30078125 12.7578125 C20.31464844 12.54898437 19.32851562 12.34015625 18.3125 12.125 C17.31863281 11.92132813 16.32476562 11.71765625 15.30078125 11.5078125 C14.16189453 11.25644531 14.16189453 11.25644531 13 11 C13 12.65 13 14.3 13 16 C13.99 16.33 14.98 16.66 16 17 C6.63786633 15.76814031 -2.20351966 12.29449929 -11 9 C-9.68 8.67 -8.36 8.34 -7 8 C-7.66 6.68 -8.32 5.36 -9 4 C-6.35001226 2.58036371 -3.91349184 1.70325665 -1 1 C-0.67 0.67 -0.34 0.34 0 0 Z " fill="#161518" transform="translate(130,364)"/>
<path d="M0 0 C0.33 0.66 0.66 1.32 1 2 C4.5445672 3.1815224 6.35686868 2.64290553 10 2 C11.99965715 1.96296931 14.00056665 1.95239444 16 2 C16 1.34 16 0.68 16 0 C16.66 0 17.32 0 18 0 C18 0.66 18 1.32 18 2 C18.66 1.67 19.32 1.34 20 1 C22.37402501 0.92883618 24.75000677 0.91590915 27.125 0.9375 C28.40632813 0.94652344 29.68765625 0.95554687 31.0078125 0.96484375 C31.99523437 0.97644531 32.98265625 0.98804688 34 1 C32.125 5.875 32.125 5.875 31 7 C29.00041636 7.04080783 26.99954746 7.04254356 25 7 C24.67 7.99 24.34 8.98 24 10 C23.34 9.814375 22.68 9.62875 22 9.4375 C18.82884345 8.97503967 16.14857521 9.33986037 12.99609375 9.8046875 C9.42087122 10.15451358 6.19960389 9.59980195 3 8 C2.67 7.01 2.34 6.02 2 5 C1.34 4.67 0.68 4.34 0 4 C0 2.68 0 1.36 0 0 Z " fill="#08080A" transform="translate(75,362)"/>
<path d="M0 0 C13.08304907 -0.37739565 25.98257939 0.78381162 39 2 C39 2.66 39 3.32 39 4 C32.565 4.495 32.565 4.495 26 5 C26.33 6.32 26.66 7.64 27 9 C36.57 9.33 46.14 9.66 56 10 C56 10.33 56 10.66 56 11 C28.54337748 13.71655629 28.54337748 13.71655629 16 10 C16 9.34 16 8.68 16 8 C16.99 7.67 17.98 7.34 19 7 C19.99 6.01 20.98 5.02 22 4 C14.74 3.01 7.48 2.02 0 1 C0 0.67 0 0.34 0 0 Z " fill="#434245" transform="translate(158,376)"/>
<path d="M0 0 C1.32 0 2.64 0 4 0 C4 1.32 4 2.64 4 4 C3.34 4 2.68 4 2 4 C2 4.99 2 5.98 2 7 C3.32 6.67 4.64 6.34 6 6 C6.93423645 9.01031744 7.04449911 9.86650268 6 13 C5.34 13 4.68 13 4 13 C3.67 14.98 3.34 16.96 3 19 C3.66 19.33 4.32 19.66 5 20 C5 20.66 5 21.32 5 22 C5.99 21.67 6.98 21.34 8 21 C8.99 21.33 9.98 21.66 11 22 C11 22.66 11 23.32 11 24 C9.02 24.33 7.04 24.66 5 25 C4.67 25.99 4.34 26.98 4 28 C-0.95 28.495 -0.95 28.495 -6 29 C-7 25 -7 25 -7 23 C-3.535 22.505 -3.535 22.505 0 22 C0.33 19.36 0.66 16.72 1 14 C0.01 14 -0.98 14 -2 14 C-1 12 0 10 1 8 C0.34 7.67 -0.32 7.34 -1 7 C-0.67 4.69 -0.34 2.38 0 0 Z " fill="#0C0A0C" transform="translate(164,251)"/>
<path d="M0 0 C0.66 0.33 1.32 0.66 2 1 C1.01 2.98 0.02 4.96 -1 7 C0.01320312 6.71125 1.02640625 6.4225 2.0703125 6.125 C3.42176313 5.74959705 4.77333201 5.37461959 6.125 5 C6.79015625 4.80921875 7.4553125 4.6184375 8.140625 4.421875 C12.1986205 3.30791545 15.79685974 2.79049768 20 3 C20 3.33 20 3.66 20 4 C18.35 4 16.7 4 15 4 C15 4.66 15 5.32 15 6 C14.01 6.33 13.02 6.66 12 7 C12 8.98 12 10.96 12 13 C7.71 14.65 3.42 16.3 -1 18 C-1.33 17.34 -1.66 16.68 -2 16 C-0.02 15.67 1.96 15.34 4 15 C4 14.34 4 13.68 4 13 C1.69 13.33 -0.62 13.66 -3 14 C-3.74926071 10.33694766 -4.2380014 7.57644848 -3 4 C-2.34 4 -1.68 4 -1 4 C-0.67 2.68 -0.34 1.36 0 0 Z " fill="#2A2A2A" transform="translate(171,260)"/>
<path d="M0 0 C1.12477404 3.37432212 1.5298869 5.79892303 0.0625 9.125 C-0.4634375 10.053125 -0.4634375 10.053125 -1 11 C-1.33 11.66 -1.66 12.32 -2 13 C-1.01 13 -0.02 13 1 13 C0.67 15.64 0.34 18.28 0 21 C-2.31 21.33 -4.62 21.66 -7 22 C-6.67 22.99 -6.34 23.98 -6 25 C-7.32 25 -8.64 25 -10 25 C-10.66 26.32 -11.32 27.64 -12 29 C-12.33 28.34 -12.66 27.68 -13 27 C-15.02463255 26.34786708 -15.02463255 26.34786708 -17 26 C-15.9275 25.731875 -14.855 25.46375 -13.75 25.1875 C-10.98472212 24.02552465 -10.13440539 23.25492086 -8.71484375 20.5625 C-7.70249289 17.7294573 -6.81155923 14.89664216 -6 12 C-4.60267959 7.37137616 -2.82047639 3.94866694 0 0 Z " fill="#111012" transform="translate(164,252)"/>
<path d="M0 0 C0.99 0 1.98 0 3 0 C3 0.66 3 1.32 3 2 C3.66 2 4.32 2 5 2 C5 2.66 5 3.32 5 4 C5.763125 3.67 6.52625 3.34 7.3125 3 C10 2 10 2 13 2 C11.71034824 3.37562854 10.37310707 4.70766393 9 6 C8.34 6 7.68 6 7 6 C7 6.66 7 7.32 7 8 C6.34 8 5.68 8 5 8 C4.731875 8.61875 4.46375 9.2375 4.1875 9.875 C3 12 3 12 0 14 C0 12.35 0 10.7 0 9 C-0.33 9.66 -0.66 10.32 -1 11 C-1.99 11 -2.98 11 -4 11 C-4 10.01 -4 9.02 -4 8 C-4.99 7.67 -5.98 7.34 -7 7 C-6.21625 6.401875 -5.4325 5.80375 -4.625 5.1875 C-1.85425677 3.08914751 -1.85425677 3.08914751 0 0 Z " fill="#302E30" transform="translate(98,335)"/>
<path d="M0 0 C2.875 0.125 2.875 0.125 6 1 C7.85233285 3.40803271 9 4.92741925 9 8 C9.99 8.33 10.98 8.66 12 9 C13.3066568 12.91997041 13.18421613 16.66486383 13.1875 20.75 C13.19974609 21.53632813 13.21199219 22.32265625 13.22460938 23.1328125 C13.23709648 28.14430555 12.60673771 32.24964503 11 37 C10.67 37 10.34 37 10 37 C10.03552979 36.3294458 10.07105957 35.6588916 10.10766602 34.96801758 C10.26571836 31.91647264 10.41420082 28.86453383 10.5625 25.8125 C10.61857422 24.75740234 10.67464844 23.70230469 10.73242188 22.61523438 C10.78076172 21.59365234 10.82910156 20.57207031 10.87890625 19.51953125 C10.9260376 18.58214111 10.97316895 17.64475098 11.02172852 16.67895508 C10.99989432 13.98697068 10.61586406 11.61483024 10 9 C9.34 9 8.68 9 8 9 C7.67 7.35 7.34 5.7 7 4 C3.95071844 5.06530151 3.95071844 5.06530151 1 7 C0.02525184 10.08961458 0.02525184 10.08961458 0 13 C-2.00519881 10.16913109 -2.08216415 8.14322623 -1.6875 4.8125 C-1 1 -1 1 0 0 Z " fill="#595659" transform="translate(249,330)"/>
<path d="M0 0 C1.7015625 0.23009766 1.7015625 0.23009766 3.4375 0.46484375 C7.95140295 1.02908162 12.45890154 1.32245927 17 1.5625 C18.16208984 1.62727539 18.16208984 1.62727539 19.34765625 1.69335938 C21.23163621 1.79802493 23.11580036 1.89936661 25 2 C24.67 2.99 24.34 3.98 24 5 C19.71 5 15.42 5 11 5 C11 6.32 11 7.64 11 9 C9.37181054 8.77169299 7.7473651 8.51656424 6.125 8.25 C5.22007813 8.11078125 4.31515625 7.9715625 3.3828125 7.828125 C1 7 1 7 -0.3828125 5.109375 C-1 3 -1 3 0 0 Z " fill="#302F32" transform="translate(97,206)"/>
<path d="M0 0 C0.99 0 1.98 0 3 0 C3 0.66 3 1.32 3 2 C3.99 2.33 4.98 2.66 6 3 C5.67 3.33 5.34 3.66 5 4 C9.25299564 6.43028322 12.11016479 7.32598901 17 7 C17.99 7 18.98 7 20 7 C20.66 8.98 21.32 10.96 22 13 C19.38529577 12.28689885 16.77064309 11.57361641 14.15625 10.859375 C12.11554754 10.30373819 10.07393597 9.75142492 8.03125 9.203125 C-2.60987903 6.33820565 -2.60987903 6.33820565 -6 5 C-6.33 4.34 -6.66 3.68 -7 3 C-4.69 3.33 -2.38 3.66 0 4 C0 2.68 0 1.36 0 0 Z " fill="#201F25" transform="translate(299,178)"/>
<path d="M0 0 C0.99 0 1.98 0 3 0 C3.33 0.66 3.66 1.32 4 2 C7.465 1.505 7.465 1.505 11 1 C6.63519539 5.68812347 1.71077265 8.21101801 -4 11 C-7 6.25 -7 6.25 -7 4 C-7.66 4 -8.32 4 -9 4 C-8.67 3.01 -8.34 2.02 -8 1 C-6.00045254 0.95745644 -3.99958364 0.95919217 -2 1 C-1.67 1.33 -1.34 1.66 -1 2 C-0.67 1.34 -0.34 0.68 0 0 Z " fill="#212122" transform="translate(154,277)"/>
<path d="M0 0 C0 0.99 0 1.98 0 3 C-0.99 3.495 -0.99 3.495 -2 4 C-2.37309899 5.65821773 -2.70700977 7.32577014 -3 9 C-4 10 -4 10 -6.5625 10.0625 C-7.366875 10.041875 -8.17125 10.02125 -9 10 C-9 9.01 -9 8.02 -9 7 C-9.99 7 -10.98 7 -12 7 C-12.1875 4.625 -12.1875 4.625 -12 2 C-7.47621396 -1.01585736 -5.21315314 -1.04263063 0 0 Z " fill="#131213" transform="translate(190,230)"/>
<path d="M0 0 C0.66 0.99 1.32 1.98 2 3 C1.29647958 6.37689802 0.5791196 8.4208804 -1.875 10.875 C-4 12 -4 12 -8 12 C-8 11.34 -8 10.68 -8 10 C-8.66 10 -9.32 10 -10 10 C-10 9.34 -10 8.68 -10 8 C-10.66 7.67 -11.32 7.34 -12 7 C-11.21753906 6.57847656 -10.43507813 6.15695312 -9.62890625 5.72265625 C-8.61699219 5.17480469 -7.60507813 4.62695312 -6.5625 4.0625 C-5.55316406 3.51722656 -4.54382813 2.97195313 -3.50390625 2.41015625 C-1.13329507 1.22300532 -1.13329507 1.22300532 0 0 Z " fill="#121013" transform="translate(111,327)"/>
<path d="M0 0 C1.32 0 2.64 0 4 0 C4 0.99 4 1.98 4 3 C4.99 3 5.98 3 7 3 C7.33 2.01 7.66 1.02 8 0 C9.33332095 2.6666419 8.67102033 4.16680303 8 7 C7.01 7 6.02 7 5 7 C5 7.66 5 8.32 5 9 C4.34 9 3.68 9 3 9 C3 9.66 3 10.32 3 11 C1.68 11.33 0.36 11.66 -1 12 C-0.67 10.02 -0.34 8.04 0 6 C-0.66 5.67 -1.32 5.34 -2 5 C-1.34 3.35 -0.68 1.7 0 0 Z " fill="#19181B" transform="translate(90,343)"/>
<path d="M0 0 C0.99 0 1.98 0 3 0 C3 0.66 3 1.32 3 2 C4.65 2 6.3 2 8 2 C8.33 3.65 8.66 5.3 9 7 C6.44931155 9.35448165 5.28982642 9.98327924 1.75 10.1875 C0.8425 10.125625 -0.065 10.06375 -1 10 C-0.67 6.7 -0.34 3.4 0 0 Z " fill="#110F11" transform="translate(121,315)"/>
<path d="M0 0 C0.33 0.66 0.66 1.32 1 2 C3.92339677 3.24159482 3.92339677 3.24159482 6.75 2.5 C10.40612646 1.93751901 13.37721377 2.34789848 17 3 C16.01 3.495 16.01 3.495 15 4 C14.67 4.99 14.34 5.98 14 7 C6.16438356 8.35616438 6.16438356 8.35616438 3 7 C1.25 5.6875 1.25 5.6875 0 4 C0 2.68 0 1.36 0 0 Z " fill="#070607" transform="translate(75,362)"/>
<path d="M0 0 C0.66 0.33 1.32 0.66 2 1 C1.01 2.485 1.01 2.485 0 4 C0.66 4 1.32 4 2 4 C2 4.99 2 5.98 2 7 C2.66 7.33 3.32 7.66 4 8 C2.35 9.98 0.7 11.96 -1 14 C-1.93423645 10.98968256 -2.04449911 10.13349732 -1 7 C-3.74251195 7 -5.25505845 8.14574768 -7.625 9.5 C-8.44226563 9.9640625 -9.25953125 10.428125 -10.1015625 10.90625 C-10.72804688 11.2671875 -11.35453125 11.628125 -12 12 C-10.47940093 8.11985064 -8.13921469 6.26093438 -4.875 3.75 C-3.96492188 3.04359375 -3.05484375 2.3371875 -2.1171875 1.609375 C-1.41851562 1.07828125 -0.71984375 0.5471875 0 0 Z " fill="#474648" transform="translate(113,322)"/>
<path d="M0 0 C0.66 0 1.32 0 2 0 C2.3125 2.1875 2.3125 2.1875 2 5 C-0.375 7.625 -0.375 7.625 -3 10 C-3.99 11.485 -3.99 11.485 -5 13 C-5 12.34 -5 11.68 -5 11 C-5.66 10.67 -6.32 10.34 -7 10 C-8.3125 7.6875 -8.3125 7.6875 -9 5 C-7.625 2.6875 -7.625 2.6875 -6 1 C-3.03 1.495 -3.03 1.495 0 2 C0 1.34 0 0.68 0 0 Z " fill="#0E0E0F" transform="translate(133,299)"/>
<path d="M0 0 C2.97 0.33 5.94 0.66 9 1 C9 1.66 9 2.32 9 3 C7.68 3 6.36 3 5 3 C5 3.66 5 4.32 5 5 C5.66 5.33 6.32 5.66 7 6 C7 7.98 7 9.96 7 12 C0.06229508 7.77704918 0.06229508 7.77704918 -1 4 C-0.67 2.68 -0.34 1.36 0 0 Z " fill="#3B393C" transform="translate(194,361)"/>
<path d="M0 0 C0.99 0.33 1.98 0.66 3 1 C2.34 1 1.68 1 1 1 C-0.56272189 5.39253773 -0.56272189 5.39253773 -1 10 C-1.99 10 -2.98 10 -4 10 C-4 10.66 -4 11.32 -4 12 C-6.31 12 -8.62 12 -11 12 C-9.69139043 8.07417129 -8.25150787 5.6012063 -5 3 C-2.25 2.25 -2.25 2.25 0 2 C0 1.34 0 0.68 0 0 Z " fill="#0F0F12" transform="translate(137,289)"/>
<path d="M0 0 C3.3 0 6.6 0 10 0 C9 3 9 3 7 4 C6.67 4.99 6.34 5.98 6 7 C4.01276732 7.70381157 2.01222047 8.3711811 0 9 C-0.33 9.66 -0.66 10.32 -1 11 C-4.59090237 12.69382187 -8.09552275 14.21910455 -12 15 C-7.39147983 9.7903685 -1.24241121 5.97933262 5 3 C2.525 2.01 2.525 2.01 0 1 C0 0.67 0 0.34 0 0 Z " fill="#4B4B4D" transform="translate(113,216)"/>
<path d="M0 0 C1.45947705 0.06006078 2.91779272 0.1488689 4.375 0.25 C5.59316406 0.31960938 5.59316406 0.31960938 6.8359375 0.390625 C9 1 9 1 10.2890625 2.921875 C11 5 11 5 11 7 C8.36 7 5.72 7 3 7 C3 6.34 3 5.68 3 5 C2.01 5 1.02 5 0 5 C0 3.35 0 1.7 0 0 Z " fill="#060608" transform="translate(143,375)"/>
<path d="M0 0 C3 1 3 1 5 4 C5.125 6.6875 5.125 6.6875 5 9 C3.35 9.33 1.7 9.66 0 10 C0 9.34 0 8.68 0 8 C-0.7425 7.9175 -1.485 7.835 -2.25 7.75 C-5.51221354 6.8603054 -6.80954878 5.51496251 -9 3 C-6.36 3.33 -3.72 3.66 -1 4 C-1 4.66 -1 5.32 -1 6 C-0.34 6.33 0.32 6.66 1 7 C0.67 4.69 0.34 2.38 0 0 Z " fill="#68686A" transform="translate(245,276)"/>
<path d="M0 0 C5.5952381 0.5952381 5.5952381 0.5952381 8 3 C7.625 5.125 7.625 5.125 7 7 C7 6.01 7 5.02 7 4 C3.95071844 5.06530151 3.95071844 5.06530151 1 7 C0.02525184 10.08961458 0.02525184 10.08961458 0 13 C-2.00519881 10.16913109 -2.08216415 8.14322623 -1.6875 4.8125 C-1 1 -1 1 0 0 Z " fill="#403E40" transform="translate(249,330)"/>
<path d="M0 0 C0.99 0.66 1.98 1.32 3 2 C3.99 1.67 4.98 1.34 6 1 C6.99 1.33 7.98 1.66 9 2 C9 2.66 9 3.32 9 4 C7.02 4.33 5.04 4.66 3 5 C2.67 5.99 2.34 6.98 2 8 C0.02 8 -1.96 8 -4 8 C-2.87548273 5.0280615 -1.77706209 2.66559313 0 0 Z " fill="#161517" transform="translate(166,271)"/>
<path d="M0 0 C-0.33 0.66 -0.66 1.32 -1 2 C-6.94 1.01 -6.94 1.01 -13 0 C-13.33 0.99 -13.66 1.98 -14 3 C-14.66 3 -15.32 3 -16 3 C-16 2.01 -16 1.02 -16 0 C-18.31 0 -20.62 0 -23 0 C-23 -0.33 -23 -0.66 -23 -1 C-15.26643829 -2.37485541 -7.29818531 -3.33292578 0 0 Z " fill="#605F62" transform="translate(136,360)"/>
<path d="M0 0 C2.31284456 0.14026283 4.62527591 0.28735558 6.9375 0.4375 C8.86916016 0.55931641 8.86916016 0.55931641 10.83984375 0.68359375 C14 1 14 1 15 2 C16.51469448 2.23192865 18.03754562 2.41215238 19.5625 2.5625 C20.80193359 2.68818359 20.80193359 2.68818359 22.06640625 2.81640625 C22.70449219 2.87699219 23.34257812 2.93757813 24 3 C24 3.66 24 4.32 24 5 C22.54176788 5.0270043 21.08339325 5.04639787 19.625 5.0625 C18.81289062 5.07410156 18.00078125 5.08570313 17.1640625 5.09765625 C15 5 15 5 13 4 C10.76497353 3.76700496 8.53157476 3.61906328 6.2890625 3.4765625 C3.56552516 2.90954619 2.09537044 1.78919759 0 0 Z " fill="#373639" transform="translate(147,381)"/>
<path d="M0 0 C1.45019531 0.39832031 1.45019531 0.39832031 2.9296875 0.8046875 C10.24595399 2.79584118 17.52937478 4.66407643 25 6 C21.28587579 8.47608281 20.26842764 7.99829202 16 7.1875 C14.948125 6.99542969 13.89625 6.80335938 12.8125 6.60546875 C10 6 10 6 7 5 C7 4.34 7 3.68 7 3 C5.02 3 3.04 3 1 3 C0.67 2.01 0.34 1.02 0 0 Z " fill="#59585B" transform="translate(132,369)"/>
<path d="M0 0 C2.55480295 0.37051105 4.84421762 0.625 7.4375 0.625 C8.0975 2.605 8.7575 4.585 9.4375 6.625 C3.42672864 4.99459185 -2.57913928 3.35352643 -8.5625 1.625 C-5.43922946 -0.23900201 -3.57875595 -0.54498822 0 0 Z " fill="#323132" transform="translate(311.5625,184.375)"/>
<path d="M0 0 C0.66 0.33 1.32 0.66 2 1 C2 1.99 2 2.98 2 4 C2.66 4.33 3.32 4.66 4 5 C2.75 6.5 2.75 6.5 1 8 C-0.32 8 -1.64 8 -3 8 C-3 7.01 -3 6.02 -3 5 C-3.66 5 -4.32 5 -5 5 C-4.1875 3.0625 -4.1875 3.0625 -3 1 C-2.01 0.67 -1.02 0.34 0 0 Z " fill="#110E13" transform="translate(118,321)"/>
<path d="M0 0 C-0.33 0.66 -0.66 1.32 -1 2 C-2.36125 1.9690625 -2.36125 1.9690625 -3.75 1.9375 C-6.42672588 1.9889755 -8.46988052 2.2215017 -11 3 C-11 3.66 -11 4.32 -11 5 C-11.94875 5.103125 -12.8975 5.20625 -13.875 5.3125 C-17.29107501 5.68539295 -17.29107501 5.68539295 -19 9 C-18.67 7.35 -18.34 5.7 -18 4 C-17.030625 3.71125 -16.06125 3.4225 -15.0625 3.125 C-11.89335797 2.35785318 -11.89335797 2.35785318 -11 0 C-6.94952424 -1.35015859 -4.2079832 -0.62084998 0 0 Z " fill="#474048" transform="translate(106,269)"/>
<path d="M0 0 C0.33 0 0.66 0 1 0 C1.04241723 2.33294775 1.04092937 4.66702567 1 7 C0.67 7.33 0.34 7.66 0 8 C-0.22528924 9.99541896 -0.44761095 11.99159864 -0.62109375 13.9921875 C-1 16 -1 16 -3 19 C-3.66 19 -4.32 19 -5 19 C-5.33 20.98 -5.66 22.96 -6 25 C-6.99 25 -7.98 25 -9 25 C-7.515 21.535 -7.515 21.535 -6 18 C-5.34 18 -4.68 18 -4 18 C-3.69255859 16.30230469 -3.69255859 16.30230469 -3.37890625 14.5703125 C-3.10693028 13.08851239 -2.83478613 11.60674315 -2.5625 10.125 C-2.42779297 9.37863281 -2.29308594 8.63226563 -2.15429688 7.86328125 C-1.11328125 2.2265625 -1.11328125 2.2265625 0 0 Z " fill="#666667" transform="translate(448,323)"/>
<path d="M0 0 C0.33 0 0.66 0 1 0 C1 3.3 1 6.6 1 10 C-0.32 10 -1.64 10 -3 10 C-3.66 11.32 -4.32 12.64 -5 14 C-5.33 13.34 -5.66 12.68 -6 12 C-8.02463255 11.34786708 -8.02463255 11.34786708 -10 11 C-8.906875 10.67 -7.81375 10.34 -6.6875 10 C-4.21255701 8.97294876 -3.21249 8.37149114 -1.8671875 6.01953125 C-1.14756289 4.04580355 -0.56398345 2.02370534 0 0 Z " fill="#59575A" transform="translate(157,267)"/>
<path d="M0 0 C0 0.66 0 1.32 0 2 C-2.2277397 2.22307542 -4.45731364 2.42788178 -6.6875 2.625 C-8.54955078 2.79902344 -8.54955078 2.79902344 -10.44921875 2.9765625 C-13.92880169 2.99953004 -15.92484721 2.54051631 -19 1 C-12.39524578 -0.84933118 -6.71395104 -1.06009753 0 0 Z " fill="#444444" transform="translate(97,369)"/>
<path d="M0 0 C0.28875 0.598125 0.5775 1.19625 0.875 1.8125 C2.04742026 4.19327792 2.04742026 4.19327792 4 7 C4.34153694 8.44746609 4.62969173 9.90815665 4.875 11.375 C5.70481599 15.47723548 7.04194412 17.94334226 10 21 C7.37670952 20.63816683 6.23224076 20.25045572 4.40625 18.28125 C2.77335408 15.63232994 2.51549936 13.83559025 2.3125 10.75 C2.24675781 9.85796875 2.18101562 8.9659375 2.11328125 8.046875 C2.07589844 7.37140625 2.03851563 6.6959375 2 6 C1.34 6 0.68 6 0 6 C0 4.02 0 2.04 0 0 Z " fill="#474447" transform="translate(396,239)"/>
<path d="M0 0 C0.69287109 0.00451172 1.38574219 0.00902344 2.09960938 0.01367188 C3.79561068 0.02536844 5.49156703 0.04330076 7.1875 0.0625 C3.79304986 2.32546676 2.13036269 2.39626118 -1.875 2.625 C-5.99652923 2.76574708 -5.99652923 2.76574708 -9.8125 4.0625 C-9.8125 4.7225 -9.8125 5.3825 -9.8125 6.0625 C-11.1325 5.7325 -12.4525 5.4025 -13.8125 5.0625 C-13.4825 3.7425 -13.1525 2.4225 -12.8125 1.0625 C-8.52952469 0.00630997 -4.38264354 -0.05452092 0 0 Z " fill="#3C3B3D" transform="translate(147.8125,140.9375)"/>
<path d="M0 0 C0.33 0.99 0.66 1.98 1 3 C-7.415 3.495 -7.415 3.495 -16 4 C-15.67 3.01 -15.34 2.02 -15 1 C-10.05 0.67 -5.1 0.34 0 0 Z " fill="#3C3C3F" transform="translate(109,360)"/>
<path d="M0 0 C0.598125 0.165 1.19625 0.33 1.8125 0.5 C4.25988354 1.05940195 5.63996734 0.75858193 8 0 C8 0.99 8 1.98 8 3 C7.34 3 6.68 3 6 3 C6 3.66 6 4.32 6 5 C5.34 5 4.68 5 4 5 C4 5.66 4 6.32 4 7 C2.68 7.33 1.36 7.66 0 8 C0.33 6.02 0.66 4.04 1 2 C0.34 1.67 -0.32 1.34 -1 1 C-0.67 0.67 -0.34 0.34 0 0 Z " fill="#0B0A0C" transform="translate(89,347)"/>
<path d="M0 0 C1.0625 1.8125 1.0625 1.8125 2 4 C1.67 4.99 1.34 5.98 1 7 C0.05125 7.103125 -0.8975 7.20625 -1.875 7.3125 C-5.29107501 7.68539295 -5.29107501 7.68539295 -7 11 C-7.66 10.67 -8.32 10.34 -9 10 C-7.71937515 8.2925002 -6.38232443 6.62626404 -5 5 C-4.34 5 -3.68 5 -3 5 C-2.690625 4.360625 -2.38125 3.72125 -2.0625 3.0625 C-1 1 -1 1 0 0 Z " fill="#444345" transform="translate(88,345)"/>
<path d="M0 0 C-3.83968051 2.6571444 -6.66976147 3.43240448 -11.3125 3.6875 C-12.38113281 3.75324219 -13.44976562 3.81898438 -14.55078125 3.88671875 C-15.76314453 3.94279297 -15.76314453 3.94279297 -17 4 C-14.59327602 1.59327602 -12.88621451 1.20867825 -9.625 0.3125 C-8.66851562 0.04050781 -7.71203125 -0.23148437 -6.7265625 -0.51171875 C-4.02935339 -0.9947433 -2.55027856 -0.9004538 0 0 Z " fill="#514F53" transform="translate(341,356)"/>
<path d="M0 0 C9.41002278 0.96355353 9.41002278 0.96355353 14 2 C14 2.33 14 2.66 14 3 C6.41 3 -1.18 3 -9 3 C-9 2.67 -9 2.34 -9 2 C-6.03 2 -3.06 2 0 2 C0 1.34 0 0.68 0 0 Z " fill="#606061" transform="translate(203,267)"/>
<path d="M0 0 C0.33 1.98 0.66 3.96 1 6 C0.01 6 -0.98 6 -2 6 C-2.33 6.66 -2.66 7.32 -3 8 C-3 7.34 -3 6.68 -3 6 C-3.66 6 -4.32 6 -5 6 C-5 5.34 -5 4.68 -5 4 C-5.66 3.67 -6.32 3.34 -7 3 C-2.25 0 -2.25 0 0 0 Z " fill="#212022" transform="translate(106,331)"/>
<path d="M0 0 C-1.78881736 1.00508801 -3.58114696 2.00392736 -5.375 3 C-6.37273437 3.556875 -7.37046875 4.11375 -8.3984375 4.6875 C-11 6 -11 6 -13 6 C-12.75 4.125 -12.75 4.125 -12 2 C-8.20358196 -0.57614081 -4.33994176 -1.44664725 0 0 Z " fill="#3B3B3B" transform="translate(239,194)"/>
<path d="M0 0 C0.99 0 1.98 0 3 0 C3.93423645 3.01031744 4.04449911 3.86650268 3 7 C1.02 7.33 -0.96 7.66 -3 8 C-3 7.34 -3 6.68 -3 6 C-2.34 6 -1.68 6 -1 6 C-1.33 5.01 -1.66 4.02 -2 3 C-1.34 2.01 -0.68 1.02 0 0 Z " fill="#242123" transform="translate(161,266)"/>
<path d="M0 0 C0.99 0.33 1.98 0.66 3 1 C0.69 3.64 -1.62 6.28 -4 9 C-4.99 8.67 -5.98 8.34 -7 8 C-7 8.66 -7 9.32 -7 10 C-7.66 9.67 -8.32 9.34 -9 9 C-6 6 -3 3 0 0 Z " fill="#474747" transform="translate(161,154)"/>
<path d="M0 0 C0.99 0 1.98 0 3 0 C3 1.65 3 3.3 3 5 C2.01 5 1.02 5 0 5 C-0.7115625 5.7734375 -0.7115625 5.7734375 -1.4375 6.5625 C-1.953125 7.036875 -2.46875 7.51125 -3 8 C-5.1875 7.6875 -5.1875 7.6875 -7 7 C-6.21625 6.401875 -5.4325 5.80375 -4.625 5.1875 C-1.85425677 3.08914751 -1.85425677 3.08914751 0 0 Z " fill="#3C383C" transform="translate(98,335)"/>
<path d="M0 0 C0.99 0 1.98 0 3 0 C3 0.99 3 1.98 3 3 C3.66 3.33 4.32 3.66 5 4 C3.35 5.98 1.7 7.96 0 10 C-1.2380014 6.42355152 -0.74926071 3.66305234 0 0 Z " fill="#3B393C" transform="translate(112,326)"/>
<path d="M0 0 C0.33 0 0.66 0 1 0 C1.33 3.63 1.66 7.26 2 11 C-2 12 -2 12 -5 11 C-4.54625 10.67 -4.0925 10.34 -3.625 10 C-1.15680026 6.9622157 -0.81156856 3.80812939 0 0 Z " fill="#575459" transform="translate(120,310)"/>
<path d="M0 0 C1.04561999 3.13685998 1 5.72365939 1 9 C-0.65 8.67 -2.3 8.34 -4 8 C-4 9.65 -4 11.3 -4 13 C-4.66 12.67 -5.32 12.34 -6 12 C-4.68139111 7.38486888 -2.78644563 3.90102388 0 0 Z " fill="#4C4B4E" transform="translate(164,252)"/>
<path d="M0 0 C0 0.66 0 1.32 0 2 C-2.12124966 2.86343824 -4.24713072 3.71550648 -6.375 4.5625 C-8.15003906 5.27599609 -8.15003906 5.27599609 -9.9609375 6.00390625 C-13 7 -13 7 -15 6 C-10.71902169 3.19060798 -5.26702578 0 0 0 Z " fill="#474748" transform="translate(249,177)"/>
<path d="M0 0 C0.99 0 1.98 0 3 0 C3 0.66 3 1.32 3 2 C3.62648438 2.04898438 4.25296875 2.09796875 4.8984375 2.1484375 C6.12433594 2.26058594 6.12433594 2.26058594 7.375 2.375 C8.59316406 2.47941406 8.59316406 2.47941406 9.8359375 2.5859375 C12 3 12 3 14 5 C9.545 5.495 9.545 5.495 5 6 C5 5.01 5 4.02 5 3 C3.35 2.67 1.7 2.34 0 2 C0 1.34 0 0.68 0 0 Z " fill="#474547" transform="translate(317,174)"/>
<path d="M0 0 C0 3.19610552 -0.54671542 4.41717626 -2 7.1875 C-2.37125 7.90292969 -2.7425 8.61835938 -3.125 9.35546875 C-3.41375 9.89816406 -3.7025 10.44085938 -4 11 C-4.99 11 -5.98 11 -7 11 C-7 11.99 -7 12.98 -7 14 C-7.99 13.67 -8.98 13.34 -10 13 C-9.34 13 -8.68 13 -8 13 C-7.90847656 12.43796875 -7.81695312 11.8759375 -7.72265625 11.296875 C-6.81299986 8.40564279 -5.3388903 6.60080982 -3.4375 4.25 C-2.79683594 3.45078125 -2.15617188 2.6515625 -1.49609375 1.828125 C-1.00238281 1.22484375 -0.50867188 0.6215625 0 0 Z " fill="#525253" transform="translate(182,224)"/>
<path d="M0 0 C3.91703377 1.30567792 4.31757187 2.80094602 6.25 6.375 C7.06210937 7.84066406 7.06210937 7.84066406 7.890625 9.3359375 C9 12 9 12 8 15 C7.03697644 13.44038638 6.07978996 11.87716775 5.125 10.3125 C4.59132813 9.44238281 4.05765625 8.57226562 3.5078125 7.67578125 C2.09359186 5.16608918 1.00105211 2.69700931 0 0 Z " fill="#383539" transform="translate(373,226)"/>
<path d="M0 0 C0.66 0.33 1.32 0.66 2 1 C-1.81234923 4.3502463 -5.33285711 6.16974789 -10 8 C-10 5 -10 5 -8.8125 3.375 C-6.5751525 1.6777019 -4.74951264 1.42300194 -2 1 C-1.34 0.67 -0.68 0.34 0 0 Z " fill="#3F3F3F" transform="translate(418,383)"/>
<path d="M0 0 C1.98 0 3.96 0 6 0 C5.67 1.65 5.34 3.3 5 5 C1.65626525 4.44271087 -1.03312999 3.64826111 -4 2 C-2.68 2 -1.36 2 0 2 C0 1.34 0 0.68 0 0 Z " fill="#282628" transform="translate(123,370)"/>
<path d="M0 0 C3.99500618 1.3697164 6.80009492 3.25722422 10 6 C9.67 6.66 9.34 7.32 9 8 C8.01 7.34 7.02 6.68 6 6 C4.34450469 5.61500109 2.6777567 5.27206865 1 5 C0.67 3.35 0.34 1.7 0 0 Z " fill="#4F4B4B" transform="translate(351,189)"/>
<path d="M0 0 C2.33944736 0.28730055 4.6739143 0.61936779 7 1 C5.6875 3 5.6875 3 4 5 C3.01 5 2.02 5 1 5 C0.67 5.66 0.34 6.32 0 7 C-0.38133299 5.0085944 -0.71325582 3.00720923 -1 1 C-0.67 0.67 -0.34 0.34 0 0 Z " fill="#040406" transform="translate(184,380)"/>
<path d="M0 0 C2.64 0.33 5.28 0.66 8 1 C8 1.66 8 2.32 8 3 C8.99 3.33 9.98 3.66 11 4 C11 4.66 11 5.32 11 6 C6.14922412 4.88059018 3.222107 3.8665284 0 0 Z " fill="#434348" transform="translate(236,279)"/>
<path d="M0 0 C0.33 0.66 0.66 1.32 1 2 C1.90492188 1.96519531 1.90492188 1.96519531 2.828125 1.9296875 C4.02695313 1.90261719 4.02695313 1.90261719 5.25 1.875 C6.03890625 1.85179687 6.8278125 1.82859375 7.640625 1.8046875 C10.20731941 2.0171622 11.7916067 2.71345895 14 4 C8.58264203 4.93402724 5.19548425 5.20808081 0 3 C0 2.01 0 1.02 0 0 Z " fill="#5E5E60" transform="translate(150,179)"/>
<path d="M0 0 C0 4.10589421 -1.42485131 5.8680624 -4 9 C-6.75 9.375 -6.75 9.375 -9 9 C-6 6 -3 3 0 0 Z " fill="#48484A" transform="translate(215,194)"/>
<path d="M0 0 C1 2 2 4 3 6 C2.34 6 1.68 6 1 6 C0.67 6.66 0.34 7.32 0 8 C-0.99 7.67 -1.98 7.34 -3 7 C-3 3 -3 3 -1.5 1.25 C-1.005 0.8375 -0.51 0.425 0 0 Z " fill="#0A0A0C" transform="translate(107,272)"/>
<path d="M0 0 C2.25 -0.25 2.25 -0.25 5 0 C7.3125 2 7.3125 2 9 4 C6.13822943 5.43088528 4.06624227 4.59991697 1 4 C0.67 2.68 0.34 1.36 0 0 Z " fill="#535353" transform="translate(108,236)"/>
<path d="M0 0 C0.66 0 1.32 0 2 0 C2 0.99 2 1.98 2 3 C2.66 3 3.32 3 4 3 C4 3.66 4 4.32 4 5 C4.99 5 5.98 5 7 5 C7 5.99 7 6.98 7 8 C6.01 8 5.02 8 4 8 C4 7.34 4 6.68 4 6 C3.01 6 2.02 6 1 6 C0.67 4.02 0.34 2.04 0 0 Z " fill="#201F1F" transform="translate(120,309)"/>
<path d="M0 0 C0.66 0.99 1.32 1.98 2 3 C1.01 3.66 0.02 4.32 -1 5 C-1.33 5.99 -1.66 6.98 -2 8 C-4.0625 8.6875 -4.0625 8.6875 -6 9 C-4.68775452 5.06326356 -3.08089673 2.77280706 0 0 Z " fill="#565658" transform="translate(132,292)"/>
<path d="M0 0 C0.598125 0.20625 1.19625 0.4125 1.8125 0.625 C0.5 2.125 0.5 2.125 -1.1875 3.625 C-2.1775 3.625 -3.1675 3.625 -4.1875 3.625 C-4.1875 4.285 -4.1875 4.945 -4.1875 5.625 C-4.8475 5.625 -5.5075 5.625 -6.1875 5.625 C-5.875 3.75 -5.875 3.75 -5.1875 1.625 C-2.1875 -0.375 -2.1875 -0.375 0 0 Z " fill="#1E1E1E" transform="translate(145.1875,292.375)"/>
<path d="M0 0 C2.00720923 0.28674418 4.0085944 0.61866701 6 1 C5.34 1.66 4.68 2.32 4 3 C2.68 3 1.36 3 0 3 C0.66 3.66 1.32 4.32 2 5 C0.35 5 -1.3 5 -3 5 C-1.125 1.125 -1.125 1.125 0 0 Z " fill="#525256" transform="translate(130,364)"/>
<path d="M0 0 C0.33 0.66 0.66 1.32 1 2 C1.99 2.33 2.98 2.66 4 3 C3.1875 5.4375 3.1875 5.4375 2 8 C1.01 8.33 0.02 8.66 -1 9 C-1 8.01 -1 7.02 -1 6 C-0.34 5.67 0.32 5.34 1 5 C0.67 3.35 0.34 1.7 0 0 Z " fill="#5E5E60" transform="translate(131,312)"/>
<path d="M0 0 C1.32 0 2.64 0 4 0 C4 1.32 4 2.64 4 4 C3.34 4 2.68 4 2 4 C1.67 5.32 1.34 6.64 1 8 C0.34 7.67 -0.32 7.34 -1 7 C-0.67 4.69 -0.34 2.38 0 0 Z " fill="#131014" transform="translate(164,251)"/>
<path d="M0 0 C3.3 0 6.6 0 10 0 C9.67 0.99 9.34 1.98 9 3 C7.0625 3.8125 7.0625 3.8125 5 4 C4.34 3.34 3.68 2.68 3 2 C2.01 1.34 1.02 0.68 0 0 Z " fill="#5C5C5C" transform="translate(113,216)"/>
<path d="M0 0 C0.33 1.32 0.66 2.64 1 4 C-1.94837771 5.80178638 -4.89978679 7.47639094 -8 9 C-7.04270084 7.87411986 -6.08412105 6.7493285 -5.125 5.625 C-4.59132813 4.99851562 -4.05765625 4.37203125 -3.5078125 3.7265625 C-2.38567993 2.44163349 -1.20628025 1.20628025 0 0 Z " fill="#5B5B5B" transform="translate(430,360)"/>
<path d="M0 0 C1.98 0.66 3.96 1.32 6 2 C3.64046906 4.35953094 2.22104383 4.49141413 -1 5 C-0.67 3.35 -0.34 1.7 0 0 Z " fill="#454445" transform="translate(104,292)"/>
<path d="M0 0 C0.99 0.33 1.98 0.66 3 1 C3 1.66 3 2.32 3 3 C3.928125 3.1546875 3.928125 3.1546875 4.875 3.3125 C7 4 7 4 9 7 C5.13066838 6.42676569 2.84777943 4.61046448 0 2 C0 1.34 0 0.68 0 0 Z " fill="#404042" transform="translate(419,268)"/>
<path d="M0 0 C0.99 0.66 1.98 1.32 3 2 C3 2.99 3 3.98 3 5 C1.02 5 -0.96 5 -3 5 C-2.01 3.35 -1.02 1.7 0 0 Z " fill="#464547" transform="translate(167,246)"/>
<path d="M0 0 C3.375 -0.125 3.375 -0.125 7 0 C7.66 0.66 8.32 1.32 9 2 C8.01 2 7.02 2 6 2 C6 2.66 6 3.32 6 4 C1.125 2.25 1.125 2.25 0 0 Z " fill="#554E55" transform="translate(308,172)"/>
<path d="M0 0 C0.99 0.33 1.98 0.66 3 1 C3 1.99 3 2.98 3 4 C-0.75 5.125 -0.75 5.125 -3 4 C-2.67 3.01 -2.34 2.02 -2 1 C-1.34 0.67 -0.68 0.34 0 0 Z " fill="#282828" transform="translate(150,164)"/>
<path d="M0 0 C-0.99 1.485 -0.99 1.485 -2 3 C-5.625 3.1875 -5.625 3.1875 -9 3 C-7.14340032 -0.71319936 -3.69365381 -0.09982848 0 0 Z " fill="#020204" transform="translate(108,366)"/>
<path d="M0 0 C0.66 0.33 1.32 0.66 2 1 C0.125 6.75 0.125 6.75 -1 9 C-1.66 9 -2.32 9 -3 9 C-3 7.35 -3 5.7 -3 4 C-2.34 4 -1.68 4 -1 4 C-0.67 2.68 -0.34 1.36 0 0 Z " fill="#494849" transform="translate(171,260)"/>
<path d="M0 0 C2.31 0 4.62 0 7 0 C6.38125 0.28875 5.7625 0.5775 5.125 0.875 C2.86674235 1.93720042 2.86674235 1.93720042 1 4 C0.01 4 -0.98 4 -2 4 C-1.34 2.68 -0.68 1.36 0 0 Z " fill="#2C2C2D" transform="translate(272,371)"/>
<path d="M0 0 C2.475 0.99 2.475 0.99 5 2 C3.625 4 3.625 4 2 6 C1.34 6 0.68 6 0 6 C0 4.02 0 2.04 0 0 Z " fill="#373437" transform="translate(117,323)"/>
<path d="M0 0 C2.25 0.25 2.25 0.25 4 1 C4 1.66 4 2.32 4 3 C1.36 3.33 -1.28 3.66 -4 4 C-2.25 1.9375 -2.25 1.9375 0 0 Z " fill="#060607" transform="translate(171,272)"/>
<path d="M0 0 C3.60296594 -0.41176754 4.78402067 -0.1535853 7.8125 2 C8.534375 2.66 9.25625 3.32 10 4 C6.62294375 3.46274105 3.303314 2.88935377 0 2 C0 1.34 0 0.68 0 0 Z " fill="#3A393A" transform="translate(334,182)"/>
<path d="M0 0 C0 0.99 0 1.98 0 3 C-4.22222222 6 -4.22222222 6 -7 6 C-7 5.34 -7 4.68 -7 4 C-4.69 2.68 -2.38 1.36 0 0 Z " fill="#656366" transform="translate(412,374)"/>
<path d="M0 0 C-0.66 1.65 -1.32 3.3 -2 5 C-3.65 5 -5.3 5 -7 5 C-2.25 0 -2.25 0 0 0 Z " fill="#535353" transform="translate(383,328)"/>
<path d="M0 0 C0.66 0.33 1.32 0.66 2 1 C0.37660195 2.70884005 -1.29319053 4.37446717 -3 6 C-3.66 6 -4.32 6 -5 6 C-4.75 4.125 -4.75 4.125 -4 2 C-2.0625 0.6875 -2.0625 0.6875 0 0 Z " fill="#2B2B2D" transform="translate(103,230)"/>
<path d="M0 0 C2.375 0.25 2.375 0.25 5 1 C6.3125 3.0625 6.3125 3.0625 7 5 C5.35 4.67 3.7 4.34 2 4 C2 3.34 2 2.68 2 2 C1.34 2 0.68 2 0 2 C0 1.34 0 0.68 0 0 Z " fill="#4F4D4D" transform="translate(344,186)"/>
</svg>
